<svg width="64" height="252" viewBox="0 0 64 252" fill="none" xmlns="http://www.w3.org/2000/svg">
<path fill-rule="evenodd" clip-rule="evenodd" d="M-79.6229 177.257C-86.3831 164.595 -99.2235 157.004 -106.118 144.414C-114.622 128.884 -128.71 112.789 -124.304 95.6628C-119.911 78.5848 -98.2531 73.527 -84.9156 62.0005C-71.5228 50.4261 -61.3272 36.1587 -45.7388 27.7647C-24.0971 16.111 1.82772 -9.16051 22.5506 4.13196C44.5965 18.273 28.5185 54.7444 35.6082 79.9438C40.0548 95.7488 52.401 107.638 56.1671 123.618C60.8149 143.338 67.4693 164.26 59.9046 183.033C51.8856 202.934 33.0602 215.971 14.5686 226.85C-5.56854 238.698 -30.0376 259.037 -50.7442 248.135C-73.7912 236 -67.3578 200.231 -79.6229 177.257Z" fill="#FFECF2"/>
</svg>
