<svg width="416" height="419" viewBox="0 0 416 419" fill="none" xmlns="http://www.w3.org/2000/svg">
<rect width="415.786" height="418.62" rx="8" fill="#F78CB6"/>
<path d="M361.885 245.297C361.885 330.773 302.221 376.289 208.911 384.364C89.5825 367.766 53.2456 321.352 53.2456 235.876C53.2456 150.4 122.538 81.1078 208.014 81.1078C293.49 81.1078 361.885 159.821 361.885 245.297Z" fill="white"/>
<path fill-rule="evenodd" clip-rule="evenodd" d="M321.511 343.939V324.802C321.482 314.602 317.416 304.827 310.202 297.615C302.987 290.402 293.21 286.337 283.007 286.308H133.021C122.818 286.337 113.041 290.402 105.827 297.615C98.612 304.827 94.5461 314.602 94.5172 324.802V343.939C126.561 370.084 166.653 384.364 208.014 384.364C249.375 384.364 289.467 370.084 321.511 343.939V343.939Z" fill="#E7E3E7"/>
<path fill-rule="evenodd" clip-rule="evenodd" d="M193.438 383.781C198.233 384.164 203.101 384.364 208.023 384.364C212.946 384.364 217.649 384.164 222.389 383.799L215.99 341.515L207.914 338.617L199.856 341.515L193.438 383.781Z" fill="#D26070"/>
<path fill-rule="evenodd" clip-rule="evenodd" d="M222.954 323.125L215.972 341.515H207.896H199.837L192.855 323.125L196.355 320.136L207.896 317.365L219.454 320.136L222.954 323.125Z" fill="#A94B64"/>
<path fill-rule="evenodd" clip-rule="evenodd" d="M321.511 343.939V324.802C321.482 314.602 317.416 304.827 310.202 297.615C302.987 290.402 293.21 286.337 283.007 286.308H225.561L222.553 288.131L233.273 321.157L226.309 383.38C261.235 379.851 294.347 366.114 321.511 343.884V343.939ZM94.5172 343.939V324.802C94.5461 314.602 98.612 304.827 105.827 297.615C113.041 290.402 122.818 286.337 133.021 286.308H190.449L193.475 288.131L182.755 321.157L189.719 383.38C154.799 379.866 121.687 366.149 94.5172 343.939V343.939Z" fill="#4C3B82"/>
<path fill-rule="evenodd" clip-rule="evenodd" d="M230.046 311.242L233.273 321.211L226.309 383.435C233.558 382.711 240.755 381.536 247.858 379.917L261.914 352.76L244.759 298.538C239.435 300.033 234.495 304.753 230.046 311.242Z" fill="#30295E"/>
<path fill-rule="evenodd" clip-rule="evenodd" d="M208.005 195.707C216.211 195.75 224.069 199.029 229.872 204.83C235.675 210.631 238.954 218.487 238.998 226.691V286.144C238.954 294.349 235.675 302.205 229.872 308.006C224.069 313.807 216.211 317.085 208.005 317.129V317.129C199.797 317.09 191.936 313.814 186.132 308.011C180.328 302.209 177.051 294.35 177.012 286.144V226.764C177.031 218.546 180.301 210.669 186.107 204.851C191.913 199.032 199.784 195.746 208.005 195.707Z" fill="#F4CBBB"/>
<path fill-rule="evenodd" clip-rule="evenodd" d="M208.005 195.707C216.211 195.75 224.069 199.029 229.872 204.83C235.675 210.631 238.954 218.487 238.998 226.691V277.724C230.629 281.674 221.489 283.721 212.235 283.72V283.72C199.622 283.695 187.308 279.885 176.885 272.785V226.764C176.904 218.524 180.191 210.627 186.024 204.806C191.858 198.984 199.762 195.712 208.005 195.707V195.707Z" fill="#E4BAA9"/>
<path fill-rule="evenodd" clip-rule="evenodd" d="M125.893 186.521C125.76 191.76 127.714 196.838 131.323 200.638C134.933 204.438 139.904 206.65 145.145 206.789H146.074C144.078 199.991 143.035 192.95 142.975 185.865V179.833C142.975 167.457 126.367 168.277 125.893 186.521Z" fill="#EBBFAE"/>
<path fill-rule="evenodd" clip-rule="evenodd" d="M290.135 186.521C290.268 191.76 288.314 196.838 284.705 200.638C281.095 204.438 276.124 206.65 270.884 206.789H269.954C271.942 199.989 272.985 192.949 273.053 185.865V179.833C273.053 167.457 289.588 168.277 290.135 186.521Z" fill="#EBBFAE"/>
<path fill-rule="evenodd" clip-rule="evenodd" d="M208.023 71.8073C172.236 71.8073 142.975 102.062 142.975 139.025V200.136C142.975 237.098 172.236 267.335 208.023 267.335C243.792 267.335 273.053 237.098 273.053 200.136V139.025C273.053 102.062 243.792 71.8073 208.023 71.8073Z" fill="#F4CBBB"/>
<path fill-rule="evenodd" clip-rule="evenodd" d="M211.359 195.397C212.617 199.043 214.823 205.476 214.641 206.497C214.368 207.9 206.875 208.32 204.906 206.114C203.593 204.675 205.234 199.298 206.638 195.707C208.588 190.732 209.664 190.476 211.359 195.397Z" fill="#FBDDD2"/>
<path fill-rule="evenodd" clip-rule="evenodd" d="M185.526 154.863C185.865 155.016 186.17 155.235 186.425 155.506C186.679 155.777 186.877 156.095 187.008 156.443C187.14 156.791 187.201 157.161 187.189 157.533C187.177 157.904 187.092 158.27 186.939 158.608C186.786 158.947 186.567 159.252 186.296 159.507C186.025 159.761 185.706 159.959 185.358 160.09C185.011 160.222 184.64 160.283 184.269 160.271C183.897 160.259 183.531 160.174 183.193 160.021C180.513 158.88 177.603 158.383 174.697 158.57C171.79 158.756 168.968 159.622 166.457 161.096C166.141 161.309 165.785 161.456 165.411 161.528C165.037 161.601 164.653 161.597 164.28 161.518C163.908 161.44 163.555 161.287 163.242 161.069C162.93 160.851 162.664 160.573 162.462 160.25C162.259 159.928 162.123 159.568 162.062 159.193C162.001 158.817 162.016 158.432 162.106 158.063C162.197 157.693 162.361 157.345 162.588 157.039C162.815 156.734 163.102 156.477 163.43 156.285C174.205 149.504 185.508 154.845 185.526 154.863Z" fill="#30295E"/>
<path fill-rule="evenodd" clip-rule="evenodd" d="M252.47 156.12C252.826 156.284 253.144 156.519 253.405 156.812C253.666 157.104 253.863 157.447 253.985 157.819C254.107 158.191 254.151 158.584 254.113 158.974C254.076 159.364 253.959 159.741 253.769 160.084C253.579 160.426 253.32 160.726 253.009 160.963C252.698 161.201 252.341 161.372 251.96 161.465C251.58 161.558 251.184 161.572 250.798 161.506C250.412 161.439 250.044 161.293 249.717 161.078C247.139 159.722 244.279 158.989 241.366 158.938C238.453 158.888 235.569 159.521 232.945 160.786C232.615 160.96 232.254 161.067 231.882 161.101C231.51 161.134 231.136 161.094 230.78 160.982C230.424 160.87 230.094 160.689 229.808 160.449C229.523 160.209 229.288 159.915 229.116 159.583C228.769 158.913 228.701 158.133 228.926 157.413C229.152 156.693 229.652 156.091 230.32 155.738C241.623 149.833 252.434 156.102 252.47 156.12Z" fill="#30295E"/>
<path fill-rule="evenodd" clip-rule="evenodd" d="M281.786 171.795C281.786 171.795 273.053 171.995 273.053 179.832C269.321 174.525 267.59 168.068 268.167 161.607C268.167 161.607 251.486 142.159 252.251 120.434C253.017 98.7087 269.917 94.0793 269.917 94.0793C310.554 105.944 281.786 134.705 281.786 171.795Z" fill="#30295E"/>
<path fill-rule="evenodd" clip-rule="evenodd" d="M134.224 171.795C134.224 171.795 142.975 171.995 142.975 179.832C146.707 174.525 148.438 168.068 147.861 161.607C147.861 161.607 164.542 142.159 163.777 120.434C163.011 98.7087 146.093 94.0793 146.093 94.0793C105.456 105.944 134.224 134.705 134.224 171.795Z" fill="#30295E"/>
<path fill-rule="evenodd" clip-rule="evenodd" d="M230.611 55.4221C236.866 52.1393 243.904 50.6418 250.954 51.0938C258.004 51.5458 264.793 53.9299 270.577 57.9846C276.361 62.0393 280.917 67.6081 283.744 74.0802C286.572 80.5523 287.562 87.6777 286.606 94.6752C285.65 101.673 282.785 108.272 278.325 113.749C273.866 119.226 267.984 123.37 261.324 125.726C254.664 128.082 247.484 128.559 240.571 127.104C233.658 125.65 227.279 122.321 222.134 117.481C220.417 120.793 217.93 123.645 214.881 125.796C211.833 127.946 208.312 129.334 204.616 129.841C200.919 130.348 197.155 129.961 193.639 128.711C190.124 127.461 186.96 125.385 184.414 122.658C182.072 125.865 178.948 128.42 175.339 130.08C171.731 131.74 167.758 132.451 163.798 132.144C159.837 131.837 156.021 130.523 152.712 128.327C149.403 126.131 146.71 123.125 144.889 119.596C140.494 118.583 136.35 116.69 132.707 114.031C129.064 111.372 125.997 108.003 123.693 104.126C121.389 100.25 119.894 95.9468 119.299 91.4768C118.705 87.0069 119.022 82.4628 120.233 78.119C121.444 73.7752 123.523 69.7217 126.344 66.2034C129.165 62.6851 132.67 59.7749 136.648 57.6485C140.626 55.5222 144.993 54.2238 149.486 53.8317C153.98 53.4396 158.506 53.9621 162.792 55.3674C165.951 49.0805 170.796 43.7953 176.785 40.102C182.775 36.4087 189.674 34.4529 196.711 34.4529C203.748 34.4529 210.647 36.4087 216.637 40.102C222.626 43.7953 227.471 49.0805 230.63 55.3674L230.611 55.4221Z" fill="#30295E"/>
<path fill-rule="evenodd" clip-rule="evenodd" d="M208.005 317.274L229.882 338.307C229.882 338.307 237.995 343.064 241.222 336.157C244.449 329.249 254.239 286.217 254.239 286.217L238.998 280.567C238.998 280.567 238.232 307.214 208.005 317.274Z" fill="white"/>
<path fill-rule="evenodd" clip-rule="evenodd" d="M294.292 296.552C294.369 296.468 294.461 296.4 294.564 296.352C294.667 296.304 294.778 296.276 294.891 296.271C295.005 296.266 295.118 296.284 295.225 296.322C295.332 296.361 295.43 296.42 295.514 296.497C295.597 296.574 295.665 296.666 295.713 296.769C295.761 296.872 295.789 296.983 295.794 297.096C295.799 297.21 295.782 297.323 295.743 297.43C295.704 297.536 295.645 297.634 295.568 297.718C295.568 297.718 287.765 305.902 287.765 325.458V365.719L285.942 366.576V325.458C285.942 305.209 294.274 296.57 294.292 296.552Z" fill="#1C1341"/>
<path fill-rule="evenodd" clip-rule="evenodd" d="M185.982 311.242L182.755 321.157L189.719 383.38C182.47 382.657 175.273 381.482 168.17 379.862L154.096 352.706L171.27 298.484C176.557 300.033 181.534 304.753 185.982 311.242Z" fill="#30295E"/>
<path fill-rule="evenodd" clip-rule="evenodd" d="M208.005 317.274L186.128 338.307C186.128 338.307 177.997 343.064 174.788 336.157C171.579 329.249 161.771 286.217 161.771 286.217L177.012 280.567C177.012 280.567 177.796 307.214 208.005 317.274Z" fill="white"/>
<path fill-rule="evenodd" clip-rule="evenodd" d="M121.718 296.552C121.639 296.468 121.545 296.402 121.44 296.356C121.335 296.311 121.221 296.288 121.107 296.288C120.993 296.288 120.879 296.311 120.774 296.356C120.669 296.402 120.575 296.468 120.496 296.552C120.415 296.631 120.351 296.726 120.307 296.831C120.263 296.936 120.24 297.048 120.24 297.162C120.24 297.276 120.263 297.388 120.307 297.493C120.351 297.598 120.415 297.693 120.496 297.773C120.496 297.773 128.299 305.956 128.299 325.513V365.774L130.031 366.63V325.458C129.995 305.209 121.754 296.57 121.718 296.552Z" fill="#1C1341"/>
<path fill-rule="evenodd" clip-rule="evenodd" d="M175.499 192.135C177.093 192.135 178.651 191.662 179.976 190.777C181.301 189.892 182.334 188.634 182.944 187.162C183.554 185.69 183.713 184.07 183.402 182.507C183.091 180.945 182.324 179.509 181.197 178.383C180.07 177.256 178.634 176.489 177.071 176.178C175.508 175.867 173.888 176.027 172.415 176.636C170.943 177.246 169.685 178.279 168.799 179.603C167.914 180.928 167.441 182.486 167.441 184.079C167.446 186.214 168.296 188.26 169.807 189.77C171.317 191.28 173.364 192.13 175.499 192.135Z" fill="#30295E"/>
<path fill-rule="evenodd" clip-rule="evenodd" d="M240.511 192.135C242.104 192.135 243.662 191.662 244.988 190.777C246.313 189.892 247.346 188.634 247.955 187.162C248.565 185.69 248.725 184.07 248.414 182.507C248.103 180.945 247.336 179.509 246.209 178.383C245.082 177.256 243.646 176.489 242.083 176.178C240.52 175.867 238.9 176.027 237.427 176.636C235.955 177.246 234.696 178.279 233.811 179.603C232.925 180.928 232.453 182.486 232.453 184.079C232.457 186.214 233.308 188.26 234.818 189.77C236.328 191.28 238.375 192.13 240.511 192.135Z" fill="#30295E"/>
<path fill-rule="evenodd" clip-rule="evenodd" d="M222.243 220.659C222.312 222.57 221.994 224.475 221.31 226.26C220.626 228.046 219.589 229.675 218.261 231.051C216.933 232.428 215.341 233.522 213.58 234.27C211.82 235.017 209.927 235.402 208.014 235.402C206.101 235.402 204.208 235.017 202.448 234.27C200.687 233.522 199.096 232.428 197.767 231.051C196.439 229.675 195.402 228.046 194.718 226.26C194.034 224.475 193.716 222.57 193.785 220.659C193.79 219.966 194.068 219.303 194.56 218.815C195.052 218.326 195.717 218.052 196.41 218.052H219.618C220.311 218.052 220.976 218.326 221.468 218.815C221.96 219.303 222.238 219.966 222.243 220.659V220.659Z" fill="#FFCCE0"/>
</svg>
