<svg version="1.1" xmlns="http://www.w3.org/2000/svg" viewBox="0 0 683 512">
	<path d="M317.95 471.303c2.61 3.791 6.101 6.889 10.175 9.030s8.606 3.259 13.207 3.259c4.601 0 9.134-1.118 13.207-3.259s7.565-5.24 10.175-9.030l256-369.777c2.963-4.265 4.701-9.261 5.024-14.445 0.323-5.183-0.78-10.356-3.19-14.956s-6.035-8.452-10.481-11.137c-4.446-2.685-9.542-4.1-14.736-4.092h-512c-5.181 0.022-10.259 1.455-14.686 4.146s-8.038 6.538-10.442 11.129c-2.404 4.59-3.513 9.748-3.205 14.92s2.020 10.163 4.952 14.435l256 369.777z"></path>
</svg>
