<svg version="1.1" xmlns="http://www.w3.org/2000/svg" viewBox="0 0 512 512">
	<path d="M256 48c-114.688 0-208 93.312-208 208s93.312 208 208 208c114.688 0 208-93.312 208-208s-93.312-208-208-208zM256 80c97.376 0 176 78.624 176 176s-78.624 176-176 176c-97.376 0-176-78.624-176-176s78.624-176 176-176zM254.496 160c-53.184 0-96 42.816-96 96s42.816 96 96 96c38.384 0 71.2-23.008 86.496-55.504l-28.992-13.488c-10.32 21.92-31.872 36.992-57.504 36.992-36.432 0-64-27.568-64-64s27.568-64 64-64c25.632 0 47.2 15.056 57.504 37.008l29.008-13.504c-15.328-32.496-48.128-55.504-86.528-55.504h0.016z"></path>
</svg>
