<svg viewBox="0 0 28 14" xmlns="http://www.w3.org/2000/svg">
	<path fill-rule="evenodd" clip-rule="evenodd" d="M19.4588 0.352622C19.8163 -0.0683169 20.4474 -0.11972 20.8683 0.237812L27.2753 5.67967C27.492 5.86376 27.6201 6.13142 27.6276 6.41568C27.635 6.69995 27.5211 6.97394 27.3143 7.16912L20.9073 13.2156C20.5056 13.5947 19.8727 13.5764 19.4937 13.1747C19.1146 12.7731 19.1329 12.1402 19.5346 11.7611L24.1113 7.44185H1C0.447715 7.44185 0 6.99413 0 6.44185C0 5.88956 0.447715 5.44185 1 5.44185H23.9058L19.5736 1.76217C19.1526 1.40464 19.1012 0.773562 19.4588 0.352622Z"/>
</svg>
