<svg version="1.1" xmlns="http://www.w3.org/2000/svg" viewBox="0 0 569 512">
	<path d="M570.88 280.574v-0.016l-7.914-8.554 0.687-1.87h-0.001l-127.653-46.977v-152.597h-0.010c0.217-4.722-2.613-9.207-7.224-10.868-0.002-0.001-0.005-0.002-0.008-0.003l-134.858-49.621c-0.001-0.001-0.003-0.001-0.005-0.002-2.427-0.905-5.094-0.905-7.521 0-0.001 0.001-0.003 0.001-0.005 0.002l-134.88 49.629c-3.006 1.118-5.347 3.488-6.471 6.45h-0.749v157.011l-127.661 46.981c-3.006 1.118-5.348 3.488-6.472 6.449h-0.748v165.305h0.005c-0.002 4.563 2.8 8.788 7.223 10.412l134.869 49.625c0 0 0.001 0 0.002 0.001 2.428 0.91 5.101 0.91 7.53 0 0.001 0 0.002-0.001 0.004-0.001l131.114-48.247 131.114 48.246c0 0 0.001 0 0.002 0.001 2.429 0.91 5.102 0.91 7.531 0 0.001-0.001 0.001-0.001 0.002-0.001l134.87-49.625c2.854-1.050 5.12-3.235 6.308-5.998h0.919v-163.392l-0.001-0.193-0.001-0.64c-0.001-0.505-0.001-1.105 0.003-1.507zM144.268 337.959v137.708l-112.915-41.545v-137.719l112.915 41.556zM154.543 242.981l102.814 37.839-102.106 37.566-102.804-37.827 102.095-37.577zM279.151 296.402v137.719l-112.916 41.545v-137.708l112.916-41.556zM279.151 127.516v137.196l-112.916-41.556v-137.196l112.916 41.555zM187.331 70.117l102.803-37.828 102.803 37.828-102.803 37.828-102.803-37.828zM301.116 127.516l112.916-41.555v137.196l-112.916 41.556v-137.196zM414.031 337.959v137.708l-112.916-41.545v-137.719l112.916 41.556zM527.818 280.558l-102.804 37.827-102.106-37.566 102.814-37.839 102.095 37.577zM548.914 296.402v137.719l-112.916 41.545v-137.708l112.916-41.556z"></path>
</svg>
