<svg viewBox="0 0 11 26" xmlns="http://www.w3.org/2000/svg">
	<path d="M2.8704 17.0788L3.26586 17.9832C3.42885 12.4614 4.06305 6.96361 5.16155 1.54973C5.49671 -0.10302 8.02546 0.597456 7.68853 2.24666C6.59194 7.69537 5.986 13.2314 5.87796 18.7883L7.96342 15.0891C8.14562 14.8028 8.43168 14.5982 8.76155 14.5182C9.09141 14.4383 9.4394 14.4893 9.73247 14.6605C10.0255 14.8317 10.2409 15.1098 10.3333 15.4364C10.4256 15.763 10.3879 16.1127 10.2279 16.412L5.59068 24.6368C5.47347 24.8321 5.30765 24.9939 5.10938 25.1061C4.91111 25.2184 4.68714 25.2774 4.4593 25.2774C4.23145 25.2774 4.0075 25.2184 3.80923 25.1061C3.61096 24.9939 3.44512 24.8321 3.32791 24.6368C2.41997 22.5584 1.51321 20.4801 0.607629 18.4017C-0.0626898 16.8713 2.19653 15.5413 2.8704 17.0788Z"/>
</svg>
