<svg viewBox="0 0 22 22" xmlns="http://www.w3.org/2000/svg">
<path d="M0.475492 8.68839C0.487978 8.34893 0.631615 8.02752 0.876181 7.79179C1.12075 7.55605 1.44719 7.42435 1.78688 7.42435C2.12656 7.42435 2.45301 7.55605 2.69757 7.79179C2.94214 8.02752 3.08578 8.34893 3.09826 8.68839L3.04152 13.0597C4.8441 9.93662 7.25258 7.2053 10.1255 5.02609C12.9984 2.84689 16.2778 1.26373 19.7712 0.369652C21.4097 -0.0328949 22.1084 2.49767 20.4681 2.89845C17.3375 3.69125 14.3948 5.09582 11.8096 7.03121C9.22443 8.96661 7.04784 11.3946 5.40536 14.1751C6.06737 13.8024 6.75967 13.4862 7.47486 13.2299C9.07086 12.6624 9.75181 15.1948 8.17177 15.7587C5.8634 16.5918 3.94211 18.2449 2.77374 20.403C2.62387 20.6449 2.39993 20.8318 2.13526 20.9361C1.87059 21.0405 1.57932 21.0565 1.30477 20.982C1.03021 20.9075 0.787048 20.7464 0.611437 20.5225C0.435825 20.2987 0.337137 20.0242 0.330078 19.7398L0.475492 8.68839Z"/>
</svg>
