<svg viewBox="0 0 12 27" xmlns="http://www.w3.org/2000/svg">
	<path d="M3.36203 17.5666L4.32673 20.1273C4.82653 13.8642 6.22092 7.70492 8.46745 1.83721C9.06861 0.280225 11.6045 0.950527 10.9962 2.53411C8.76656 8.33371 7.39264 14.4269 6.91757 20.6221L9.0757 17.5826C10.0457 16.2171 12.3209 17.5259 11.3402 18.9055L6.116 26.256C5.98011 26.4705 5.78572 26.6418 5.55572 26.7495C5.32573 26.8572 5.06975 26.8969 4.81793 26.8639C4.56612 26.8309 4.32899 26.7266 4.13451 26.5632C3.94002 26.3999 3.79627 26.1844 3.72024 25.9421C2.75554 23.3814 1.79145 20.8201 0.827938 18.2582C0.239192 16.68 2.77328 16.0008 3.36203 17.5666Z"/>
</svg>
