<svg viewBox="0 0 17 21" xmlns="http://www.w3.org/2000/svg">
	<path d="M3.5596 8.42062C3.63644 10.194 3.71212 11.9631 3.7866 13.7282C6.34247 8.83147 9.8416 4.48861 14.0826 0.949583C15.3718 -0.114416 17.2355 1.72451 15.9357 2.80447C11.9125 6.14162 8.58206 10.2347 6.13271 14.8525C7.13192 14.2608 8.17608 13.7485 9.25555 13.3203C10.8303 12.7085 11.5112 15.2426 9.95245 15.8491C7.57588 16.7834 5.42297 18.2083 3.63409 20.0306C3.44815 20.2067 3.21521 20.3252 2.96341 20.3718C2.71161 20.4184 2.4517 20.3911 2.21507 20.2932C1.97844 20.1953 1.77518 20.031 1.62987 19.8202C1.48455 19.6093 1.40337 19.3609 1.39613 19.1049L0.938619 8.42062C0.865912 6.73241 3.48689 6.73596 3.5596 8.42062Z"/>
</svg>
