<svg viewBox="0 0 17 23" xmlns="http://www.w3.org/2000/svg">
<path d="M0.43733 12.4308C0.125223 10.7816 2.65044 10.0758 2.9661 11.7339C3.16352 12.8101 3.29499 13.8974 3.35978 14.9897C5.95975 9.19222 9.97747 4.14263 15.0425 0.30649C16.3867 -0.713176 17.7025 1.56378 16.3672 2.57104C11.6317 6.19498 7.91389 10.9819 5.57466 16.4669C6.81023 15.9966 8.12853 15.7824 9.44943 15.8374C11.1305 15.9083 11.1394 18.5293 9.44943 18.4601C7.50469 18.3667 5.60229 19.0484 4.15956 20.3558C4.10814 20.5331 4.04252 20.6945 3.99464 20.8665C3.93621 21.0992 3.80842 21.3086 3.6282 21.467C3.44799 21.6253 3.22387 21.7252 2.98561 21.7532C2.95191 21.8046 2.90226 21.8401 2.87034 21.8933C2.70382 22.1576 2.4488 22.3542 2.15079 22.4479C1.85278 22.5416 1.53117 22.5264 1.24334 22.4049C0.955507 22.2835 0.720205 22.0638 0.579391 21.7849C0.438576 21.506 0.401421 21.1862 0.474564 20.8825C0.981633 18.0869 0.969015 15.2218 0.43733 12.4308Z"/>
</svg>
