<svg viewBox="0 0 14 26" xmlns="http://www.w3.org/2000/svg">
	<path d="M3.23976 16.8346L3.90476 19.8492C5.46685 13.3991 7.99968 7.22365 11.4166 1.53426C11.5972 1.24412 11.8839 1.03589 12.2157 0.953874C12.5475 0.871859 12.8982 0.922525 13.1932 1.09509C13.4882 1.26766 13.7043 1.54853 13.7954 1.87793C13.8865 2.20734 13.8455 2.5593 13.6811 2.85895C10.5575 8.07376 8.20251 13.7119 6.68888 19.5992C8.15434 18.6377 9.75165 17.894 11.4308 17.3914C11.7618 17.312 12.1107 17.3644 12.4038 17.5375C12.697 17.7105 12.9114 17.9907 13.0018 18.3188C13.0923 18.647 13.0517 18.9975 12.8886 19.2963C12.7255 19.595 12.4526 19.8188 12.1277 19.9202C9.71717 20.6467 7.52638 21.964 5.75434 23.7523C5.71001 23.9864 5.63907 24.2152 5.59651 24.451C5.5755 24.6114 5.5193 24.7652 5.43191 24.9014C5.34452 25.0375 5.22813 25.1527 5.09105 25.2386C4.95396 25.3245 4.79958 25.379 4.63895 25.3983C4.47832 25.4176 4.31542 25.4011 4.1619 25.3501C3.99042 25.444 3.80021 25.4987 3.60503 25.5101C3.40984 25.5215 3.21457 25.4894 3.03333 25.4161C2.85207 25.3427 2.68937 25.2301 2.55701 25.0862C2.42464 24.9423 2.32591 24.7708 2.26796 24.584C1.74779 22.2349 1.22881 19.8853 0.710992 17.535C0.349232 15.8841 2.87622 15.1854 3.23976 16.8346Z"/>
</svg>
