<svg version="1.1" xmlns="http://www.w3.org/2000/svg" viewBox="0 0 512 512">
	<path d="M452.001 0h-392.001c-33.084 0-60 26.916-60 60v392.001c0 33.082 26.916 59.999 60 59.999h392.001c33.082 0 59.999-26.916 59.999-59.999v-392.001c0-33.084-26.916-60-59.999-60zM472 452.001c0 11.027-8.972 20-20 20h-114v-163.001h61.788l10.211-61.999h-72v-43.001c0-16.975 13.024-30 30.001-30h40.999v-62h-40.999c-50.925 0-91.98 41.25-91.98 92.174v42.827h-60.022v61.999h60.022v163.001h-216.022c-11.028 0-20-8.972-20-20v-392.001c0-11.028 8.972-20 20-20h392.001c11.027 0 20 8.972 20 20v392.001z"></path>
</svg>
