<svg version="1.1" xmlns="http://www.w3.org/2000/svg" viewBox="0 0 512 512">
	<path d="M373.406 0h-234.813c-76.422 0-138.594 62.172-138.594 138.594v234.815c0 76.418 62.172 138.591 138.594 138.591h234.815c76.418 0 138.591-62.173 138.591-138.591v-234.815c0-76.422-62.173-138.594-138.594-138.594v0zM481.983 373.409c0 59.869-48.705 108.575-108.577 108.575h-234.813c-59.871 0-108.578-48.705-108.578-108.575v-234.815c0-59.871 48.707-108.578 108.578-108.578h234.815c59.869 0 108.575 48.707 108.575 108.578v234.815z"></path>
	<path d="M256 116c-77.195 0-139.996 62.8-139.996 139.995s62.801 139.997 139.996 139.997 139.995-62.801 139.995-139.997c0-77.195-62.799-139.995-139.995-139.995zM256 365.976c-60.641 0-109.981-49.336-109.981-109.98 0-60.64 49.34-109.98 109.981-109.98 60.644 0 109.98 49.34 109.98 109.98 0 60.644-49.336 109.98-109.98 109.98z"></path>
	<path d="M399.344 66.284c-22.815 0-41.368 18.558-41.368 41.367 0 22.813 18.553 41.371 41.368 41.371 22.812 0 41.37-18.559 41.37-41.371s-18.558-41.368-41.37-41.368zM399.344 119.003c-6.258 0-11.353-5.094-11.353-11.352 0-6.262 5.094-11.352 11.353-11.352 6.26 0 11.355 5.090 11.355 11.352 0 6.258-5.094 11.352-11.355 11.352z"></path>
</svg>
