<svg version="1.1" xmlns="http://www.w3.org/2000/svg" viewBox="0 0 512 512">
	<path d="M0 247.655v-0.724c6.427-84.006 36.419-147.011 88.546-186.841 51.414-40.554 107.112-60.108 167.81-60.108 63.554-0.724 122.823 21.002 175.666 64.453 53.557 42.727 79.978 106.456 79.978 189.013v5.069c0 83.282-26.421 145.561-79.978 188.288-53.557 43.452-112.825 65.178-176.379 65.178h-2.856c-62.126-0.724-119.253-22.45-172.095-65.901-52.843-42.726-79.978-108.626-80.692-198.425zM240.648 133.957v-114.421h-17.137c-3.571 4.345-6.428 9.415-9.284 13.76s-5.713 8.691-8.569 13.76c-2.856 4.345-6.428 10.139-8.571 14.483-2.856 4.345-4.998 8.69-7.141 13.759-4.285 7.242-7.855 14.484-10.711 21.002-3.571 6.518-6.427 13.035-8.569 18.829 4.285 2.897 9.283 6.518 14.995 8.691 6.428 2.172 12.853 4.345 19.28 5.794 7.141 1.448 13.568 2.173 19.28 2.897 6.428 0.724 12.14 1.448 16.424 1.448zM270.639 19.535v113.698c3.57 0 7.853 0.725 12.138 0 4.284 0 9.284-0.724 13.568-1.448 7.856-1.448 17.139-3.621 24.28-5.793 7.853-2.897 14.996-6.517 19.993-10.863-8.569-21.001-17.853-37.657-27.134-53.59-9.284-15.932-19.995-29.692-31.421-41.279v-0.724h-11.425zM193.518 26.052v-0.724c-5 2.172-9.997 5.793-15.71 7.966-4.999 2.172-11.425 5.069-16.424 7.966-9.997 5.069-19.994 10.863-29.992 17.381-9.283 6.517-18.566 13.76-26.421 21.001 2.856 2.897 6.427 5.793 9.283 7.966s6.427 5.070 9.997 7.966c2.856 1.448 6.427 3.621 9.997 6.517 3.571 2.172 7.855 5.070 12.139 7.966 5.713-13.035 11.425-26.795 18.566-39.106 7.141-13.035 14.995-25.346 22.852-36.209 0.713-1.449 1.428-2.897 2.856-4.345 0.713-0.724 1.428-2.896 2.856-4.345zM412.029 79.642v-0.724c-17.853-13.76-33.563-25.346-49.272-32.589s-31.421-14.483-45.702-20.277c11.425 11.587 21.423 26.071 27.849 39.831 7.14 14.483 14.283 29.692 19.995 44.175 2.856-1.448 6.425-2.897 10.71-5.793 3.571-2.172 8.57-4.345 12.855-6.518 4.284-2.897 7.853-5.793 12.138-8.691 4.286-3.621 8.57-6.517 11.426-9.415zM399.889 241.136h82.12c0-26.794-5.712-52.142-16.424-78.212-9.997-25.346-24.278-46.348-42.13-64.453v-0.724c-3.571 5.793-8.568 10.863-13.568 14.484-5.712 3.621-10.712 6.517-16.424 9.415-3.57 2.172-7.14 5.070-10.71 6.518-3.571 2.173-8.57 3.621-12.14 5.793 2.856 5.793 5.712 12.311 8.569 18.105 2.143 6.518 5.712 13.76 7.14 20.277 4.284 11.587 7.14 23.899 9.997 36.209 2.143 10.863 3.571 22.451 3.571 32.589zM141.389 133.957v-0.725c-5.713-2.897-12.139-5.069-17.138-7.966-4.999-3.621-9.997-7.242-14.281-10.139-4.284-2.172-8.569-5.069-12.139-7.966s-6.427-5.793-9.283-8.691c-18.566 18.105-32.134 38.382-40.703 62.28-9.283 23.898-15.71 50.694-18.566 79.66h87.832c0-20.277 2.856-39.83 7.855-59.383 4.284-20.277 10.711-35.485 16.424-47.072zM240.648 240.411v-83.281c-5.713 0.725-12.853 0.725-19.28 0-7.141-0.724-14.281-2.897-20.709-5.069-5.713-1.448-12.853-2.897-18.566-5.070-6.427-1.448-12.853-4.345-17.852-7.242-4.285 7.242-7.855 15.932-10.712 25.346-3.571 8.69-5.713 18.105-7.855 26.796-1.429 8.69-2.143 18.105-2.857 26.070s-1.428 15.933-1.428 22.45h99.258zM270.639 158.578v81.833h105.684c0-4.345 0-9.413-0.715-15.208-1.428-5.069-2.142-11.586-2.856-17.381-2.142-8.69-4.284-18.105-7.14-26.794-2.856-7.966-5.712-15.932-9.284-22.45-1.428-3.621-2.856-7.966-4.284-10.863-2.142-3.621-4.284-5.793-5.712-7.966-7.853 5.793-18.565 9.415-31.418 12.311-12.14 2.897-26.423 5.793-39.276 6.518h-4.998zM117.11 264.311h-87.832c0 12.31 2.142 26.070 5.712 42.726 3.571 17.38 10.711 33.313 18.566 50.694 3.571 8.69 7.855 17.38 12.139 26.070 4.998 7.966 10.711 16.656 16.424 24.622 4.284-2.897 8.569-5.069 12.139-7.241 4.284-2.173 9.283-5.069 13.567-7.241 4.999-2.174 9.997-4.346 15.71-7.243 4.999-2.173 11.425-5.069 17.852-7.966-5.713-18.104-12.139-35.486-16.424-55.038-4.999-18.829-7.855-37.657-7.855-58.659v-0.724zM240.648 349.039v-84.728h-99.258c0 5.793 0.714 14.483 2.142 23.173 0.714 8.69 2.857 18.104 4.285 27.518 2.857 10.139 4.999 20.277 7.855 28.968 2.857 8.69 5.713 15.933 8.569 22.45 12.853-5.069 25.707-8.69 34.275-10.863 9.284-2.897 17.852-5.069 26.423-5.793h7.853c2.856-0.724 5.713-0.724 7.856-0.724zM270.639 264.311v84.005c4.998 0.724 10.71 1.448 16.423 2.173 6.428 0.724 14.283 2.173 20.709 3.62l10.712 2.174c3.571 1.448 7.856 2.173 11.425 2.897 4.284 1.448 8.57 2.173 12.855 3.62 3.57 1.448 7.14 2.173 9.997 3.62 9.284-23.897 14.996-43.45 18.565-60.107 3.571-15.933 5-29.692 5-41.278v-0.724h-105.684zM482.008 265.035v-0.724h-82.12v4.344c-0.715 13.758-2.856 29.69-5.712 46.347-2.856 15.933-9.284 34.761-17.853 57.935 11.425 5.795 22.137 11.587 30.706 17.38 8.568 5.795 16.424 12.312 22.137 18.105 12.14-12.31 22.851-28.966 32.133-50.692 9.284-21.003 15.711-42.728 19.281-65.901 0.715-4.344 0.715-8.69 1.428-13.036v-13.758zM240.648 485.188v-112.975c-17.852 2.899-32.849 6.519-44.273 9.416s-19.994 5.793-25.708 8.69c4.285 10.863 8.569 20.277 12.855 28.968 4.285 7.966 9.282 16.656 13.566 23.897 1.428 2.897 4.286 5.795 6.428 9.416 2.143 2.897 3.571 6.517 5.713 9.413 2.143 3.62 4.285 7.967 6.428 12.312 2.856 3.62 4.998 7.966 7.856 10.863h17.137zM270.639 485.188h16.423c6.428-5.070 12.855-12.312 17.853-20.279 5.712-7.966 12.14-17.378 16.424-25.346 5-9.413 9.997-18.105 14.283-26.794 4.284-8.691 7.853-16.656 10.71-22.451-7.853-2.897-18.565-5.793-29.277-8.69s-25.706-5.793-46.414-8.691v112.25zM412.029 425.803v-0.724c-1.428-2.173-4.284-5.069-6.428-7.241-2.142-2.173-5.712-5.069-9.284-7.243-2.856-2.173-6.425-4.344-10.71-6.517s-9.998-5.069-14.996-7.966c-2.856 5.793-7.856 15.933-14.996 29.69-6.428 13.76-17.853 30.416-32.133 48.521 17.853-2.897 33.562-9.416 47.842-18.104 15.711-7.966 29.277-18.829 40.704-30.416zM146.387 402.63v-0.724c-4.999 2.897-12.853 6.517-20.709 10.139-8.569 3.62-17.852 7.966-26.421 13.758 4.999 4.346 9.998 8.691 14.282 11.587 4.284 3.62 9.283 6.517 13.567 9.413 7.855 5.070 17.138 10.139 26.421 14.484s20.708 8.691 34.99 13.036c-4.998-5.793-8.569-13.036-12.139-18.829s-7.855-11.587-11.425-17.38c-3.571-5.793-6.427-12.312-9.283-18.104-3.571-5.793-6.427-11.587-9.283-17.38z"></path>
</svg>
