<svg viewBox="0 0 14 9" xmlns="http://www.w3.org/2000/svg">
	<path fill-rule="evenodd" clip-rule="evenodd" d="M4.58572 0.517454C4.6381 0.572608 4.67966 0.638129 4.70802 0.710264C4.73638 0.782399 4.75097 0.85973 4.75097 0.937829C4.75097 1.01593 4.73638 1.09326 4.70802 1.16539C4.67966 1.23753 4.6381 1.30305 4.58572 1.3582L1.60784 4.50033L4.58572 7.64245C4.63802 7.69766 4.6795 7.7632 4.70781 7.83532C4.73611 7.90745 4.75068 7.98476 4.75068 8.06283C4.75068 8.1409 4.73611 8.21821 4.70781 8.29033C4.6795 8.36246 4.63802 8.428 4.58572 8.4832C4.53342 8.53841 4.47133 8.5822 4.403 8.61208C4.33467 8.64195 4.26143 8.65733 4.18747 8.65733C4.11351 8.65733 4.04027 8.64195 3.97194 8.61208C3.9036 8.5822 3.84152 8.53841 3.78922 8.4832L0.414218 4.9207C0.361834 4.86555 0.320274 4.80003 0.291916 4.72789C0.263559 4.65576 0.248962 4.57843 0.248962 4.50033C0.248962 4.42223 0.263559 4.3449 0.291916 4.27276C0.320274 4.20063 0.361834 4.13511 0.414218 4.07995L3.78922 0.517454C3.84147 0.46216 3.90354 0.41829 3.97188 0.388357C4.04022 0.358425 4.11348 0.343018 4.18747 0.343018C4.26146 0.343018 4.33472 0.358425 4.40306 0.388357C4.47139 0.41829 4.53347 0.46216 4.58572 0.517454V0.517454Z"/>
	<path fill-rule="evenodd" clip-rule="evenodd" d="M0.8125 4.50024C0.8125 4.34277 0.871763 4.19175 0.977253 4.0804C1.08274 3.96905 1.22582 3.90649 1.375 3.90649H13.1875C13.3367 3.90649 13.4798 3.96905 13.5852 4.0804C13.6907 4.19175 13.75 4.34277 13.75 4.50024C13.75 4.65772 13.6907 4.80874 13.5852 4.92009C13.4798 5.03144 13.3367 5.09399 13.1875 5.09399H1.375C1.22582 5.09399 1.08274 5.03144 0.977253 4.92009C0.871763 4.80874 0.8125 4.65772 0.8125 4.50024Z"/>
</svg>
