<svg version="1.1" xmlns="http://www.w3.org/2000/svg" viewBox="0 0 582 512">
	<path d="M581.818 75.139c-36.599 1.754-35.801 1.611-39.936 1.972l21.674-64.377c0 0-67.659 25.885-84.81 30.515-45.045-42.107-112.002-43.967-159.872-13.37-39.2 25.063-60.239 68.103-53.222 118.408-76.291-11.011-140.571-48.621-191.321-112.023l-16.051-20.049-11.994 22.907c-15.159 28.945-20.192 62.041-14.178 93.188 2.468 12.779 6.663 24.966 12.474 36.378l-13.77-5.549-1.634 23.928c-1.655 24.305 6.125 52.678 20.819 75.89 4.137 6.538 9.463 13.717 16.216 20.796l-7.115-1.134 8.683 27.416c11.412 36.024 35.116 63.893 65.878 79.385-30.722 13.558-55.54 22.209-96.334 36.166l-37.322 12.76 34.472 19.601c13.143 7.475 59.588 32.435 105.478 39.925 102.007 16.638 216.856 3.089 294.172-69.332 65.121-60.995 86.491-147.763 82.053-238.056-0.67-13.669 2.93-26.715 10.138-36.729 14.441-20.049 55.417-78.48 55.505-78.614zM499.053 132.518c-11.971 16.624-17.969 37.855-16.894 59.775 4.48 91.079-19.349 161.712-70.828 209.925-60.132 56.325-157.128 78.433-266.103 60.656-19.736-3.219-40.132-10.424-57.013-17.622 34.202-12.237 60.614-23.147 103.267-44.142l59.542-29.31-65.74-4.377c-31.489-2.097-57.71-17.966-73.828-43.736 8.558-0.517 16.81-1.957 25.026-4.341l62.7-18.159-63.224-16.103c-30.722-7.827-48.233-26.943-57.515-41.605-6.094-9.635-10.076-19.504-12.465-28.603 6.339 1.768 13.73 3.029 25.648 4.256l58.519 6.020-46.364-37.615c-33.407-27.099-46.795-67.811-36.981-106.95 104.261 112.467 226.677 104.014 239 106.987-2.712-27.399-2.784-27.464-3.493-30.072-15.781-58.015 18.805-87.473 34.401-97.445 32.582-20.825 84.298-23.964 120.122 10.346 7.736 7.405 18.2 10.318 27.99 7.788 8.79-2.271 16.002-4.677 23.065-7.294l-14.702 43.663 18.767 0.013c-3.542 4.939-7.789 10.853-12.9 17.944z"></path>
</svg>
