<svg version="1.1" xmlns="http://www.w3.org/2000/svg" viewBox="0 0 615 512">
	<path d="M406.74 240.736l-144-90c-5.55-3.468-12.544-3.651-18.267-0.48-5.724 3.172-9.275 9.201-9.275 15.744v179.999c0 6.543 3.55 12.572 9.275 15.744 2.719 1.508 5.724 2.258 8.725 2.258 3.316 0 6.626-0.916 9.54-2.736l144-90c5.264-3.289 8.461-9.060 8.461-15.266s-3.195-11.975-8.458-15.264zM271.199 313.523v-115.048l92.040 57.524-92.039 57.523z"></path>
	<path d="M524.4 22h-434.401c-49.626 0-90 40.374-90 90v288c0 49.625 40.374 90 90 90h434.401c49.625 0 90-40.374 90-90v-288c0-49.626-40.374-90-90-90zM578.402 400c0 29.776-24.226 54-54 54h-434.401c-29.776 0-54-24.226-54-54v-288c0-29.775 24.224-54 54-54h434.401c29.775 0 54 24.225 54 54v288z"></path>
</svg>
